<svg width="157" height="157" viewBox="0 0 157 157" fill="none" xmlns="http://www.w3.org/2000/svg">
<g opacity="0.23">
<path d="M65.4093 129.198H91.576C91.576 135.74 86.8856 142.281 78.4927 142.281C70.0997 142.281 65.4093 135.74 65.4093 129.198ZM132.409 101.559L125.174 89.4832C122.433 84.9105 120.987 79.6771 120.987 74.3588V57.1741C120.987 33.7615 101.925 14.7188 78.4993 14.7188C55.0735 14.7188 36.0111 33.7615 36.0111 57.1741V74.3588C36.0111 79.6771 34.5654 84.9105 31.8244 89.4832L24.5893 101.559C22.3782 105.235 22.326 109.67 24.4455 113.412C26.565 117.154 30.3983 119.385 34.6962 119.385H122.315C126.62 119.385 130.453 117.148 132.573 113.412C134.672 109.677 134.62 105.242 132.409 101.559Z" fill="#8E8EA9"/>
</g>
</svg>
