<svg width="60" height="61" viewBox="0 0 60 61" fill="none" xmlns="http://www.w3.org/2000/svg">
<circle cx="29.999" cy="30.2803" r="30" fill="#003372"/>
<path d="M42.5706 36.4231C42.5706 36.7445 42.5111 37.1641 42.392 37.682C42.273 38.1998 42.148 38.6076 42.017 38.9052C41.767 39.5004 41.0408 40.1314 39.8384 40.7981C38.7194 41.4052 37.6123 41.7088 36.517 41.7088C36.1956 41.7088 35.8831 41.6879 35.5795 41.6463C35.2759 41.6046 34.9337 41.5302 34.5527 41.4231C34.1718 41.3159 33.889 41.2296 33.7045 41.1641C33.52 41.0987 33.1896 40.9766 32.7134 40.7981C32.2373 40.6195 31.9456 40.5123 31.8384 40.4766C30.6718 40.06 29.6301 39.5659 28.7134 38.9945C27.1896 38.054 25.6152 36.7713 23.9902 35.1463C22.3652 33.5213 21.0825 31.9469 20.142 30.4231C19.5706 29.5064 19.0765 28.4647 18.6599 27.2981C18.6242 27.1909 18.517 26.8993 18.3384 26.4231C18.1599 25.9469 18.0379 25.6165 17.9724 25.432C17.9069 25.2475 17.8206 24.9647 17.7134 24.5838C17.6063 24.2028 17.5319 23.8606 17.4902 23.557C17.4486 23.2534 17.4277 22.9409 17.4277 22.6195C17.4277 21.5243 17.7313 20.4171 18.3384 19.2981C19.0051 18.0957 19.6361 17.3695 20.2313 17.1195C20.5289 16.9885 20.9367 16.8635 21.4545 16.7445C21.9724 16.6254 22.392 16.5659 22.7134 16.5659C22.8801 16.5659 23.0051 16.5838 23.0884 16.6195C23.3027 16.6909 23.6182 17.1433 24.0349 17.9766C24.1658 18.2028 24.3444 18.5243 24.5706 18.9409C24.7968 19.3576 25.0051 19.7356 25.1956 20.0748C25.3861 20.4141 25.5706 20.7326 25.7492 21.0302C25.7849 21.0778 25.889 21.2266 26.0617 21.4766C26.2343 21.7266 26.3623 21.9379 26.4456 22.1106C26.5289 22.2832 26.5706 22.4528 26.5706 22.6195C26.5706 22.8576 26.4009 23.1552 26.0617 23.5123C25.7224 23.8695 25.3533 24.1969 24.9545 24.4945C24.5557 24.7921 24.1867 25.1076 23.8474 25.4409C23.5081 25.7743 23.3384 26.0481 23.3384 26.2623C23.3384 26.3695 23.3682 26.5034 23.4277 26.6641C23.4873 26.8248 23.5379 26.9469 23.5795 27.0302C23.6212 27.1135 23.7045 27.2564 23.8295 27.4588C23.9545 27.6612 24.023 27.7743 24.0349 27.7981C24.9396 29.429 25.9754 30.8278 27.142 31.9945C28.3087 33.1612 29.7075 34.1969 31.3384 35.1016C31.3623 35.1135 31.4754 35.182 31.6777 35.307C31.8801 35.432 32.023 35.5153 32.1063 35.557C32.1896 35.5987 32.3117 35.6493 32.4724 35.7088C32.6331 35.7683 32.767 35.7981 32.8742 35.7981C33.0884 35.7981 33.3623 35.6284 33.6956 35.2891C34.0289 34.9498 34.3444 34.5808 34.642 34.182C34.9396 33.7832 35.267 33.4141 35.6242 33.0748C35.9813 32.7356 36.2789 32.5659 36.517 32.5659C36.6837 32.5659 36.8533 32.6076 37.0259 32.6909C37.1986 32.7743 37.4099 32.9022 37.6599 33.0748C37.9099 33.2475 38.0587 33.3516 38.1063 33.3873C38.4039 33.5659 38.7224 33.7504 39.0617 33.9409C39.4009 34.1314 39.7789 34.3397 40.1956 34.5659C40.6123 34.7921 40.9337 34.9707 41.1599 35.1016C41.9932 35.5183 42.4456 35.8338 42.517 36.0481C42.5527 36.1314 42.5706 36.2564 42.5706 36.4231Z" fill="white"/>
</svg>
