<svg width="27" height="26" viewBox="0 0 27 26" fill="none" xmlns="http://www.w3.org/2000/svg">
<mask id="path-1-outside-1_26_72" maskUnits="userSpaceOnUse" x="0.881836" y="0" width="26" height="26" fill="black">
<rect fill="white" x="0.881836" width="26" height="26"/>
<path d="M21.1416 3.44756C18.9072 1.74844 16.148 0.886593 13.344 1.01197C10.5399 1.13736 7.86859 2.24203 5.79475 4.13379C3.72092 6.02554 2.37586 8.58464 1.99361 11.3658C1.61137 14.1469 2.21613 16.9741 3.70267 19.3554C5.18921 21.7366 7.46344 23.5213 10.1296 24.3987C12.7958 25.2762 15.6852 25.191 18.2951 24.1579C20.905 23.1248 23.0701 21.2092 24.4137 18.7445C25.7574 16.2797 26.1945 13.4218 25.6491 10.668L13.8798 13L21.1416 3.44756Z"/>
</mask>
<path d="M21.1416 3.44756C18.9072 1.74844 16.148 0.886593 13.344 1.01197C10.5399 1.13736 7.86859 2.24203 5.79475 4.13379C3.72092 6.02554 2.37586 8.58464 1.99361 11.3658C1.61137 14.1469 2.21613 16.9741 3.70267 19.3554C5.18921 21.7366 7.46344 23.5213 10.1296 24.3987C12.7958 25.2762 15.6852 25.191 18.2951 24.1579C20.905 23.1248 23.0701 21.2092 24.4137 18.7445C25.7574 16.2797 26.1945 13.4218 25.6491 10.668L13.8798 13L21.1416 3.44756Z" fill="#003372"/>
<path d="M21.1416 3.44756C18.9072 1.74844 16.148 0.886593 13.344 1.01197C10.5399 1.13736 7.86859 2.24203 5.79475 4.13379C3.72092 6.02554 2.37586 8.58464 1.99361 11.3658C1.61137 14.1469 2.21613 16.9741 3.70267 19.3554C5.18921 21.7366 7.46344 23.5213 10.1296 24.3987C12.7958 25.2762 15.6852 25.191 18.2951 24.1579C20.905 23.1248 23.0701 21.2092 24.4137 18.7445C25.7574 16.2797 26.1945 13.4218 25.6491 10.668L13.8798 13L21.1416 3.44756Z" stroke="#003372" stroke-width="2" mask="url(#path-1-outside-1_26_72)"/>
<ellipse cx="13.8802" cy="13" rx="11.141" ry="11.1429" fill="white"/>
<path d="M8.73828 12.0014L12.3827 15.64L19.665 9.57141" stroke="#003372" stroke-width="2" stroke-linecap="round" stroke-linejoin="round"/>
</svg>
