<svg width="26" height="26" viewBox="0 0 26 26" fill="none" xmlns="http://www.w3.org/2000/svg">
<mask id="path-1-outside-1_88_7099" maskUnits="userSpaceOnUse" x="0" y="0" width="26" height="26" fill="black">
<rect fill="white" width="26" height="26"/>
<path d="M20.263 3.44756C18.0283 1.74844 15.2686 0.886593 12.4641 1.01197C9.65954 1.13736 6.98776 2.24203 4.91358 4.13379C2.83939 6.02554 1.49411 8.58464 1.1118 11.3658C0.729487 14.1469 1.33435 16.9741 2.82114 19.3554C4.30793 21.7366 6.58254 23.5213 9.24919 24.3987C11.9158 25.2762 14.8057 25.191 17.416 24.1579C20.0263 23.1248 22.1918 21.2092 23.5357 18.7445C24.8796 16.2797 25.3168 13.4218 24.7712 10.668L13 13L20.263 3.44756Z"/>
</mask>
<path d="M20.263 3.44756C18.0283 1.74844 15.2686 0.886593 12.4641 1.01197C9.65954 1.13736 6.98776 2.24203 4.91358 4.13379C2.83939 6.02554 1.49411 8.58464 1.1118 11.3658C0.729487 14.1469 1.33435 16.9741 2.82114 19.3554C4.30793 21.7366 6.58254 23.5213 9.24919 24.3987C11.9158 25.2762 14.8057 25.191 17.416 24.1579C20.0263 23.1248 22.1918 21.2092 23.5357 18.7445C24.8796 16.2797 25.3168 13.4218 24.7712 10.668L13 13L20.263 3.44756Z" fill="#0870D0"/>
<path d="M20.263 3.44756C18.0283 1.74844 15.2686 0.886593 12.4641 1.01197C9.65954 1.13736 6.98776 2.24203 4.91358 4.13379C2.83939 6.02554 1.49411 8.58464 1.1118 11.3658C0.729487 14.1469 1.33435 16.9741 2.82114 19.3554C4.30793 21.7366 6.58254 23.5213 9.24919 24.3987C11.9158 25.2762 14.8057 25.191 17.416 24.1579C20.0263 23.1248 22.1918 21.2092 23.5357 18.7445C24.8796 16.2797 25.3168 13.4218 24.7712 10.668L13 13L20.263 3.44756Z" stroke="#0870D0" stroke-width="2" mask="url(#path-1-outside-1_88_7099)"/>
<circle cx="13.0022" cy="13.0003" r="11.1429" fill="white"/>
<path d="M7.85938 12.0013L11.5044 15.6399L18.7879 9.57129" stroke="#0870D0" stroke-width="2" stroke-linecap="round" stroke-linejoin="round"/>
</svg>
