<svg width="60" height="61" viewBox="0 0 60 61" fill="none" xmlns="http://www.w3.org/2000/svg">
<circle cx="29.999" cy="30.2803" r="30" fill="#003372"/>
<g clip-path="url(#clip0_150_1654)">
<path d="M29.9989 16.9468C24.8455 16.9468 20.6655 21.1268 20.6655 26.2801C20.6655 33.2801 29.9989 43.6134 29.9989 43.6134C29.9989 43.6134 39.3322 33.2801 39.3322 26.2801C39.3322 21.1268 35.1522 16.9468 29.9989 16.9468ZM29.9989 29.6134C28.1589 29.6134 26.6655 28.1201 26.6655 26.2801C26.6655 24.4401 28.1589 22.9468 29.9989 22.9468C31.8389 22.9468 33.3322 24.4401 33.3322 26.2801C33.3322 28.1201 31.8389 29.6134 29.9989 29.6134Z" fill="white"/>
</g>
<defs>
<clipPath id="clip0_150_1654">
<rect width="32" height="32" fill="white" transform="translate(13.999 14.2803)"/>
</clipPath>
</defs>
</svg>
