<svg width="58" height="58" viewBox="0 0 58 58" fill="none" xmlns="http://www.w3.org/2000/svg">
<circle cx="29" cy="29" r="29" fill="#29378C" fill-opacity="0.05"/>
<path d="M18.5961 32.2332L18.5961 32.2332L18.5965 32.2345C19.7715 36.0228 22.9197 38.8804 26.7983 39.6747C26.8705 39.7002 26.9395 39.7001 26.9836 39.7001C26.9857 39.7001 26.9878 39.7001 26.9898 39.7001C27.4002 39.7001 27.7821 39.4008 27.8667 38.9705C27.9733 38.4801 27.6619 37.9994 27.1691 37.9029C23.9233 37.2437 21.2969 34.8634 20.3131 31.6958C20.168 31.2246 19.6631 30.9635 19.1867 31.1064L19.1867 31.1064L19.1857 31.1067C18.7144 31.2517 18.4532 31.7567 18.5961 32.2332Z" fill="#29378C" stroke="#29378C" stroke-width="0.3"/>
<path d="M19.8002 28.05L19.9495 28.0651C20.4217 23.4119 24.307 19.9 29.0002 19.9C33.6834 19.9 37.5787 23.4119 38.051 28.0751L38.051 28.0757C38.0992 28.5337 38.4951 28.88 38.9502 28.88H38.9515C38.9611 28.88 38.98 28.88 39.0001 28.878C39.0133 28.8767 39.0332 28.874 39.0552 28.8671C39.5383 28.8088 39.8868 28.3699 39.8395 27.8854L39.8395 27.8851C39.2818 22.308 34.6169 18.1 29.0002 18.1C23.3934 18.1 18.7288 22.3081 18.161 27.8848L18.1609 27.8854C18.1131 28.3761 18.4712 28.8202 18.964 28.8691C19.4712 28.9286 19.9018 28.5533 19.9495 28.0646L19.8002 28.05ZM19.8002 28.05C20.2802 23.32 24.2302 19.75 29.0002 19.75C33.7602 19.75 37.7202 23.32 38.2002 28.06L19.8002 28.05Z" fill="#29378C" stroke="#29378C" stroke-width="0.3"/>
<path d="M39.3935 32.294L39.3931 32.2952C38.1967 36.0669 35.0535 38.8959 31.1902 39.6868L31.1753 39.6898H31.1601C31.1438 39.6898 31.1263 39.6915 31.1 39.6941L31.0975 39.6943C31.0741 39.6967 31.0427 39.6998 31.0101 39.6998C30.5909 39.6998 30.2171 39.4115 30.1329 38.9786C30.1329 38.9785 30.1329 38.9785 30.1328 38.9785L30.2801 38.9498L39.3935 32.294ZM39.3935 32.294C39.5362 31.83 39.2885 31.3131 38.8054 31.1668C38.3362 31.0118 37.8213 31.2759 37.6767 31.7557C36.6829 34.9031 34.0566 37.2637 30.8304 37.9228L39.3935 32.294Z" fill="#29378C" stroke="#29378C" stroke-width="0.3"/>
</svg>
