<svg width="58" height="58" viewBox="0 0 58 58" fill="none" xmlns="http://www.w3.org/2000/svg">
<circle cx="29" cy="29" r="29" fill="#29378C" fill-opacity="0.05"/>
<path d="M19 23.4776C19 22.1008 19 21.4124 19.2217 20.8682C19.5264 20.1201 20.1201 19.5264 20.8682 19.2217C21.4124 19 22.1008 19 23.4776 19C24.8544 19 25.5428 19 26.087 19.2217C26.8352 19.5264 27.4288 20.1201 27.7336 20.8682C27.9552 21.4124 27.9552 22.1008 27.9552 23.4776C27.9552 24.8544 27.9552 25.5428 27.7336 26.087C27.4288 26.8352 26.8352 27.4288 26.087 27.7336C25.5428 27.9552 24.8544 27.9552 23.4776 27.9552C22.1008 27.9552 21.4124 27.9552 20.8682 27.7336C20.1201 27.4288 19.5264 26.8352 19.2217 26.087C19 25.5428 19 24.8544 19 23.4776Z" fill="#003372"/>
<path d="M30 23.4776C30 22.1008 30 21.4124 30.2217 20.8682C30.5264 20.1201 31.1201 19.5264 31.8682 19.2217C32.4124 19 33.1008 19 34.4776 19C35.8544 19 36.5428 19 37.087 19.2217C37.8352 19.5264 38.4288 20.1201 38.7336 20.8682C38.9552 21.4124 38.9552 22.1008 38.9552 23.4776C38.9552 24.8544 38.9552 25.5428 38.7336 26.087C38.4288 26.8352 37.8352 27.4288 37.087 27.7336C36.5428 27.9552 35.8544 27.9552 34.4776 27.9552C33.1008 27.9552 32.4124 27.9552 31.8682 27.7336C31.1201 27.4288 30.5264 26.8352 30.2217 26.087C30 25.5428 30 24.8544 30 23.4776Z" fill="#003372"/>
<path d="M19 34.5225C19 33.1457 19 32.4573 19.2217 31.9131C19.5264 31.165 20.1201 30.5713 20.8682 30.2666C21.4124 30.0449 22.1008 30.0449 23.4776 30.0449C24.8544 30.0449 25.5428 30.0449 26.087 30.2666C26.8352 30.5713 27.4288 31.165 27.7336 31.9131C27.9552 32.4573 27.9552 33.1457 27.9552 34.5225C27.9552 35.8993 27.9552 36.5877 27.7336 37.1319C27.4288 37.8801 26.8352 38.4737 26.087 38.7784C25.5428 39.0001 24.8544 39.0001 23.4776 39.0001C22.1008 39.0001 21.4124 39.0001 20.8682 38.7784C20.1201 38.4737 19.5264 37.8801 19.2217 37.1319C19 36.5877 19 35.8993 19 34.5225Z" fill="#003372"/>
<path d="M30.0449 34.5225C30.0449 33.1457 30.0449 32.4573 30.2666 31.9131C30.5714 31.165 31.165 30.5713 31.9131 30.2666C32.4573 30.0449 33.1457 30.0449 34.5225 30.0449C35.8994 30.0449 36.5878 30.0449 37.1319 30.2666C37.8801 30.5713 38.4737 31.165 38.7785 31.9131C39.0002 32.4573 39.0002 33.1457 39.0002 34.5225C39.0002 35.8993 39.0002 36.5877 38.7785 37.1319C38.4737 37.8801 37.8801 38.4737 37.1319 38.7784C36.5878 39.0001 35.8994 39.0001 34.5225 39.0001C33.1457 39.0001 32.4573 39.0001 31.9131 38.7784C31.165 38.4737 30.5714 37.8801 30.2666 37.1319C30.0449 36.5877 30.0449 35.8993 30.0449 34.5225Z" fill="#003372"/>
</svg>
