<svg width="58" height="58" viewBox="0 0 58 58" fill="none" xmlns="http://www.w3.org/2000/svg">
<circle cx="29" cy="29" r="29" fill="#29378C" fill-opacity="0.05"/>
<g clip-path="url(#clip0_167_13178)">
<path d="M22.6943 38.4372C24.5608 39.6843 26.7552 40.35 29 40.35C32.0102 40.35 34.8971 39.1542 37.0257 37.0257C39.1542 34.8971 40.35 32.0102 40.35 29C40.35 26.7552 39.6843 24.5608 38.4372 22.6943C37.19 20.8278 35.4174 19.373 33.3435 18.514C31.2695 17.6549 28.9874 17.4301 26.7857 17.8681C24.584 18.306 22.5617 19.387 20.9743 20.9743C19.387 22.5617 18.306 24.584 17.8681 26.7857C17.4301 28.9874 17.6549 31.2695 18.514 33.3435C19.373 35.4174 20.8278 37.19 22.6943 38.4372ZM23.6388 20.9763C25.2257 19.916 27.0914 19.35 29 19.35C31.5593 19.35 34.0139 20.3667 35.8236 22.1764C37.6333 23.9862 38.65 26.4407 38.65 29C38.65 30.9086 38.084 32.7743 37.0237 34.3613C35.9633 35.9482 34.4562 37.1851 32.6929 37.9154C30.9296 38.6458 28.9893 38.8369 27.1174 38.4646C25.2455 38.0922 23.526 37.1732 22.1764 35.8236C20.8268 34.474 19.9078 32.7545 19.5354 30.8826C19.1631 29.0107 19.3542 27.0704 20.0846 25.3071C20.815 23.5438 22.0518 22.0367 23.6388 20.9763Z" fill="#29378C" stroke="#29378C" stroke-width="0.2"/>
<path d="M32.18 33.3864L32.1093 33.3157L28.3968 29.6032L28.3965 29.6029C28.3177 29.5235 28.2554 29.4293 28.2131 29.3257C28.1708 29.2223 28.1494 29.1115 28.15 28.9997M32.18 33.3864L28.25 29M32.18 33.3864L32.2507 33.3157L33.3157 32.2507L33.3865 32.1799L33.3156 32.1092L29.85 28.651M32.18 33.3864L29.75 28.6925M28.15 28.9997C28.15 28.9996 28.15 28.9995 28.15 28.9994L28.25 29M28.15 28.9997V29H28.25M28.15 28.9997V23V22.9H28.25H29.75H29.85V23V28.651M28.25 29V23.1V23H28.35H29.65H29.75V23.1V28.6925M29.85 28.651L29.8206 28.6217L29.75 28.6925M29.85 28.651V28.6925H29.75" fill="#29378C" stroke="#29378C" stroke-width="0.2"/>
</g>
<defs>
<clipPath id="clip0_167_13178">
<rect width="24" height="24" fill="white" transform="translate(17 17)"/>
</clipPath>
</defs>
</svg>
