<svg width="58" height="58" viewBox="0 0 58 58" fill="none" xmlns="http://www.w3.org/2000/svg">
<circle cx="29" cy="29" r="29" fill="#29378C" fill-opacity="0.05"/>
<g clip-path="url(#clip0_167_13314)">
<path d="M20.375 24.5H21.5C21.5995 24.5 21.6948 24.4605 21.7652 24.3902C21.8355 24.3198 21.875 24.2245 21.875 24.125C21.875 24.0255 21.8355 23.9302 21.7652 23.8598C21.6948 23.7895 21.5995 23.75 21.5 23.75H20.375C20.2755 23.75 20.1802 23.7895 20.1098 23.8598C20.0395 23.9302 20 24.0255 20 24.125C20 24.2245 20.0395 24.3198 20.1098 24.3902C20.1802 24.4605 20.2755 24.5 20.375 24.5Z" fill="#003372"/>
<path d="M26.75 26.375H20.375C20.2755 26.375 20.1802 26.4145 20.1098 26.4848C20.0395 26.5552 20 26.6505 20 26.75C20 26.8495 20.0395 26.9448 20.1098 27.0152C20.1802 27.0855 20.2755 27.125 20.375 27.125H26.75C26.8495 27.125 26.9448 27.0855 27.0152 27.0152C27.0855 26.9448 27.125 26.8495 27.125 26.75C27.125 26.6505 27.0855 26.5552 27.0152 26.4848C26.9448 26.4145 26.8495 26.375 26.75 26.375Z" fill="#003372"/>
<path d="M26.75 29H20.375C20.2755 29 20.1802 29.0395 20.1098 29.1098C20.0395 29.1802 20 29.2755 20 29.375C20 29.4745 20.0395 29.5698 20.1098 29.6402C20.1802 29.7105 20.2755 29.75 20.375 29.75H26.75C26.8495 29.75 26.9448 29.7105 27.0152 29.6402C27.0855 29.5698 27.125 29.4745 27.125 29.375C27.125 29.2755 27.0855 29.1802 27.0152 29.1098C26.9448 29.0395 26.8495 29 26.75 29Z" fill="#003372"/>
<path d="M26.75 31.625H20.375C20.2755 31.625 20.1802 31.6645 20.1098 31.7348C20.0395 31.8052 20 31.9005 20 32C20 32.0995 20.0395 32.1948 20.1098 32.2652C20.1802 32.3355 20.2755 32.375 20.375 32.375H26.75C26.8495 32.375 26.9448 32.3355 27.0152 32.2652C27.0855 32.1948 27.125 32.0995 27.125 32C27.125 31.9005 27.0855 31.8052 27.0152 31.7348C26.9448 31.6645 26.8495 31.625 26.75 31.625Z" fill="#003372"/>
<path d="M26.75 34.25H20.375C20.2755 34.25 20.1802 34.2895 20.1098 34.3598C20.0395 34.4302 20 34.5255 20 34.625C20 34.7245 20.0395 34.8198 20.1098 34.8902C20.1802 34.9605 20.2755 35 20.375 35H26.75C26.8495 35 26.9448 34.9605 27.0152 34.8902C27.0855 34.8198 27.125 34.7245 27.125 34.625C27.125 34.5255 27.0855 34.4302 27.0152 34.3598C26.9448 34.2895 26.8495 34.25 26.75 34.25Z" fill="#003372"/>
<path d="M37.625 23.75H36.5C36.4005 23.75 36.3052 23.7895 36.2348 23.8598C36.1645 23.9302 36.125 24.0255 36.125 24.125C36.125 24.2245 36.1645 24.3198 36.2348 24.3902C36.3052 24.4605 36.4005 24.5 36.5 24.5H37.625C37.7245 24.5 37.8198 24.4605 37.8902 24.3902C37.9605 24.3198 38 24.2245 38 24.125C38 24.0255 37.9605 23.9302 37.8902 23.8598C37.8198 23.7895 37.7245 23.75 37.625 23.75Z" fill="#003372"/>
<path d="M37.625 26.375H31.25C31.1505 26.375 31.0552 26.4145 30.9848 26.4848C30.9145 26.5552 30.875 26.6505 30.875 26.75C30.875 26.8495 30.9145 26.9448 30.9848 27.0152C31.0552 27.0855 31.1505 27.125 31.25 27.125H37.625C37.7245 27.125 37.8198 27.0855 37.8902 27.0152C37.9605 26.9448 38 26.8495 38 26.75C38 26.6505 37.9605 26.5552 37.8902 26.4848C37.8198 26.4145 37.7245 26.375 37.625 26.375Z" fill="#003372"/>
<path d="M37.625 29H31.25C31.1505 29 31.0552 29.0395 30.9848 29.1098C30.9145 29.1802 30.875 29.2755 30.875 29.375C30.875 29.4745 30.9145 29.5698 30.9848 29.6402C31.0552 29.7105 31.1505 29.75 31.25 29.75H37.625C37.7245 29.75 37.8198 29.7105 37.8902 29.6402C37.9605 29.5698 38 29.4745 38 29.375C38 29.2755 37.9605 29.1802 37.8902 29.1098C37.8198 29.0395 37.7245 29 37.625 29Z" fill="#003372"/>
<path d="M37.625 31.625H31.25C31.1505 31.625 31.0552 31.6645 30.9848 31.7348C30.9145 31.8052 30.875 31.9005 30.875 32C30.875 32.0995 30.9145 32.1948 30.9848 32.2652C31.0552 32.3355 31.1505 32.375 31.25 32.375H37.625C37.7245 32.375 37.8198 32.3355 37.8902 32.2652C37.9605 32.1948 38 32.0995 38 32C38 31.9005 37.9605 31.8052 37.8902 31.7348C37.8198 31.6645 37.7245 31.625 37.625 31.625Z" fill="#003372"/>
<path d="M37.625 34.25H31.25C31.1505 34.25 31.0552 34.2895 30.9848 34.3598C30.9145 34.4302 30.875 34.5255 30.875 34.625C30.875 34.7245 30.9145 34.8198 30.9848 34.8902C31.0552 34.9605 31.1505 35 31.25 35H37.625C37.7245 35 37.8198 34.9605 37.8902 34.8902C37.9605 34.8198 38 34.7245 38 34.625C38 34.5255 37.9605 34.4302 37.8902 34.3598C37.8198 34.2895 37.7245 34.25 37.625 34.25Z" fill="#003372"/>
<path d="M30.125 21.875C30.125 21.7755 30.0855 21.6802 30.0152 21.6098C29.9448 21.5395 29.8495 21.5 29.75 21.5H28.625V22.25H29.75C29.8495 22.25 29.9448 22.2105 30.0152 22.1402C30.0855 22.0698 30.125 21.9745 30.125 21.875Z" fill="#003372"/>
<path d="M38.375 20.75H35.375V18.875C35.375 18.5766 35.2565 18.2905 35.0455 18.0795C34.8345 17.8685 34.5484 17.75 34.25 17.75H23.75C23.4516 17.75 23.1655 17.8685 22.9545 18.0795C22.7435 18.2905 22.625 18.5766 22.625 18.875V20.75H19.625C19.1277 20.75 18.6508 20.9475 18.2992 21.2992C17.9475 21.6508 17.75 22.1277 17.75 22.625V39.125C17.75 39.4234 17.8685 39.7095 18.0795 39.9205C18.2905 40.1315 18.5766 40.25 18.875 40.25H39.125C39.4234 40.25 39.7095 40.1315 39.9205 39.9205C40.1315 39.7095 40.25 39.4234 40.25 39.125V22.625C40.25 22.1277 40.0525 21.6508 39.7008 21.2992C39.3492 20.9475 38.8723 20.75 38.375 20.75ZM31.625 19.625C31.625 19.5255 31.6645 19.4302 31.7348 19.3598C31.8052 19.2895 31.9005 19.25 32 19.25H33.5C33.5995 19.25 33.6948 19.2895 33.7652 19.3598C33.8355 19.4302 33.875 19.5255 33.875 19.625C33.875 19.7245 33.8355 19.8198 33.7652 19.8902C33.6948 19.9605 33.5995 20 33.5 20H32.375V22.25H33.5C33.5995 22.25 33.6948 22.2895 33.7652 22.3598C33.8355 22.4302 33.875 22.5255 33.875 22.625C33.875 22.7245 33.8355 22.8198 33.7652 22.8902C33.6948 22.9605 33.5995 23 33.5 23H32C31.9005 23 31.8052 22.9605 31.7348 22.8902C31.6645 22.8198 31.625 22.7245 31.625 22.625V19.625ZM27.875 21.125V19.625C27.875 19.5255 27.9145 19.4302 27.9848 19.3598C28.0552 19.2895 28.1505 19.25 28.25 19.25H29.75C30.0484 19.25 30.3345 19.3685 30.5455 19.5795C30.7565 19.7905 30.875 20.0766 30.875 20.375C30.8733 20.6525 30.7692 20.9196 30.5825 21.125C30.7692 21.3304 30.8733 21.5975 30.875 21.875C30.875 22.1734 30.7565 22.4595 30.5455 22.6705C30.3345 22.8815 30.0484 23 29.75 23H28.25C28.1505 23 28.0552 22.9605 27.9848 22.8902C27.9145 22.8198 27.875 22.7245 27.875 22.625V21.125ZM24.1475 22.4937L25.2725 19.4938C25.2988 19.4214 25.3467 19.3588 25.4098 19.3146C25.4728 19.2704 25.548 19.2467 25.625 19.2467C25.702 19.2467 25.7772 19.2704 25.8402 19.3146C25.9033 19.3588 25.9512 19.4214 25.9775 19.4938L27.1025 22.4937C27.1199 22.54 27.128 22.5893 27.1262 22.6387C27.1245 22.6881 27.1131 22.7367 27.0925 22.7816C27.0719 22.8266 27.0427 22.8671 27.0064 22.9007C26.9702 22.9343 26.9276 22.9604 26.8813 22.9775C26.8392 22.9928 26.7947 23.0004 26.75 23C26.6734 23.0002 26.5985 22.977 26.5355 22.9334C26.4725 22.8899 26.4243 22.828 26.3975 22.7563L25.625 20.6938L24.8525 22.7563C24.8177 22.8497 24.7472 22.9256 24.6564 22.9671C24.5657 23.0086 24.4622 23.0123 24.3687 22.9775C24.2753 22.9427 24.1994 22.8722 24.1579 22.7814C24.1164 22.6907 24.1127 22.5872 24.1475 22.4937ZM25.37 37.25H19.625C19.3266 37.25 19.0405 37.1315 18.8295 36.9205C18.6185 36.7095 18.5 36.4234 18.5 36.125V22.625C18.5 22.3266 18.6185 22.0405 18.8295 21.8295C19.0405 21.6185 19.3266 21.5 19.625 21.5H22.625V23.375C22.625 23.6734 22.7435 23.9595 22.9545 24.1705C23.1655 24.3815 23.4516 24.5 23.75 24.5H24.125V25.25C24.1252 25.3193 24.1446 25.3871 24.181 25.446C24.2174 25.5049 24.2694 25.5526 24.3312 25.5837C24.383 25.6118 24.4411 25.626 24.5 25.625C24.5811 25.625 24.6601 25.5987 24.725 25.55L26.1237 24.5H28.625V38.84L28.5387 38.75C28.1532 38.2826 27.6693 37.9059 27.1217 37.6466C26.574 37.3874 25.9759 37.2519 25.37 37.25ZM39.5 36.125C39.5 36.4234 39.3815 36.7095 39.1705 36.9205C38.9595 37.1315 38.6734 37.25 38.375 37.25H32.63C32.0241 37.2519 31.426 37.3874 30.8783 37.6466C30.3307 37.9059 29.8468 38.2826 29.4613 38.75L29.375 38.855V24.5H34.25C34.5484 24.5 34.8345 24.3815 35.0455 24.1705C35.2565 23.9595 35.375 23.6734 35.375 23.375V21.5H38.375C38.6734 21.5 38.9595 21.6185 39.1705 21.8295C39.3815 22.0405 39.5 22.3266 39.5 22.625V36.125Z" fill="#003372"/>
<path d="M30.125 20.375C30.125 20.2755 30.0855 20.1802 30.0152 20.1098C29.9448 20.0395 29.8495 20 29.75 20H28.625V20.75H29.75C29.8495 20.75 29.9448 20.7105 30.0152 20.6402C30.0855 20.5698 30.125 20.4745 30.125 20.375Z" fill="#003372"/>
</g>
<defs>
<clipPath id="clip0_167_13314">
<rect width="24" height="24" fill="white" transform="translate(17 17)"/>
</clipPath>
</defs>
</svg>
