<svg width="58" height="58" viewBox="0 0 58 58" fill="none" xmlns="http://www.w3.org/2000/svg">
<circle cx="29" cy="29" r="29" fill="#29378C" fill-opacity="0.05"/>
<g clip-path="url(#clip0_167_13186)">
<path d="M18.2002 21.7394C18.2002 20.4361 19.2506 19.3697 20.5345 19.3697H36.8747C37.4938 19.3697 38.0876 19.6194 38.5253 20.0638C38.9631 20.5082 39.209 21.1109 39.209 21.7394V38.3273C39.209 38.9558 38.9631 39.5585 38.5253 40.0029C38.0876 40.4473 37.4938 40.697 36.8747 40.697H20.5345C19.9154 40.697 19.3217 40.4473 18.8839 40.0029C18.4461 39.5585 18.2002 38.9558 18.2002 38.3273V21.7394ZM20.5345 22.0343V38.3273H36.8747V22L20.5345 22.0343ZM22.8688 17H25.2031V19.3697H22.8688V17ZM32.2061 17H34.5404V19.3697H32.2061V17ZM22.8688 27.6636H25.2031V30.0333H22.8688V27.6636ZM22.8688 32.403H25.2031V34.7727H22.8688V32.403ZM27.5375 27.6636H29.8718V30.0333H27.5375V27.6636ZM27.5375 32.403H29.8718V34.7727H27.5375V32.403ZM32.2061 27.6636H34.5404V30.0333H32.2061V27.6636ZM32.2061 32.403H34.5404V34.7727H32.2061V32.403Z" fill="#29378C" stroke="#EEF1FF" stroke-width="0.5"/>
</g>
<defs>
<clipPath id="clip0_167_13186">
<rect width="24" height="24" fill="white" transform="translate(17 17)"/>
</clipPath>
</defs>
</svg>
