<svg width="28" height="28" viewBox="0 0 28 28" fill="none" xmlns="http://www.w3.org/2000/svg">
<path d="M14.0004 7.51331V11.3983M14.0237 2.33331C9.73037 2.33331 6.2537 5.80998 6.2537 10.1033V12.5533C6.2537 13.3466 5.92704 14.5366 5.5187 15.2133L4.03704 17.6866C3.12704 19.215 3.75704 20.9183 5.43704 21.4783C11.0152 23.3333 17.0439 23.3333 22.622 21.4783C22.9901 21.3555 23.3259 21.1516 23.6046 20.8816C23.8833 20.6117 24.0977 20.2825 24.2321 19.9185C24.3665 19.5545 24.4174 19.165 24.3811 18.7787C24.3447 18.3924 24.222 18.0192 24.022 17.6866L22.5404 15.2133C22.132 14.5366 21.8054 13.335 21.8054 12.5533V10.1033C21.7937 5.83331 18.2937 2.33331 14.0237 2.33331Z" stroke="white" stroke-width="1.5" stroke-miterlimit="10" stroke-linecap="round"/>
<path d="M17.8852 23.3567C17.8852 25.4917 16.1352 27.2417 14.0002 27.2417C12.9386 27.2417 11.9586 26.7984 11.2586 26.0984C10.5586 25.3984 10.1152 24.4184 10.1152 23.3567" stroke="white" stroke-width="1.5" stroke-miterlimit="10"/>
</svg>
