<svg width="24" height="24" viewBox="0 0 24 24" fill="none" xmlns="http://www.w3.org/2000/svg">
<path d="M8.28381 18.6359C8.49381 18.5129 8.72331 18.3929 8.97231 18.2789C8.76197 18.5925 8.53671 18.8959 8.29731 19.1879C7.87731 19.6934 7.55031 19.9619 7.34481 20.0459C7.32775 20.0531 7.31021 20.0591 7.29231 20.0639C7.27734 20.0431 7.26429 20.021 7.25331 19.9979C7.16931 19.8329 7.17231 19.6739 7.31331 19.4579C7.47231 19.2104 7.79181 18.9269 8.28381 18.6359ZM11.9663 16.1654C11.7878 16.2029 11.6108 16.2404 11.4323 16.2824C11.6967 15.7644 11.9468 15.2392 12.1823 14.7074C12.4194 15.1468 12.6746 15.5762 12.9473 15.9944C12.6218 16.0424 12.2933 16.0994 11.9663 16.1654ZM15.7538 17.5739C15.5208 17.386 15.3027 17.1804 15.1013 16.9589C15.4433 16.9664 15.7523 16.9919 16.0193 17.0399C16.4948 17.1254 16.7183 17.2604 16.7963 17.3534C16.8209 17.3794 16.8348 17.4137 16.8353 17.4494C16.8301 17.5552 16.7992 17.6582 16.7453 17.7494C16.7151 17.8225 16.6665 17.8866 16.6043 17.9354C16.5734 17.9544 16.5369 17.9623 16.5008 17.9579C16.3658 17.9534 16.1138 17.8589 15.7538 17.5739ZM12.4163 10.4549C12.3563 10.8209 12.2543 11.2409 12.1163 11.6984C12.0655 11.5271 12.0209 11.354 11.9828 11.1794C11.8688 10.6499 11.8523 10.2344 11.9138 9.94641C11.9708 9.68091 12.0788 9.57441 12.2078 9.52191C12.277 9.49142 12.3503 9.4712 12.4253 9.46191C12.4448 9.50691 12.4673 9.59991 12.4733 9.75891C12.4808 9.94191 12.4628 10.1744 12.4163 10.4564V10.4549Z" fill="#003372"/>
<path fill-rule="evenodd" clip-rule="evenodd" d="M6 0H13.9395C14.3373 8.49561e-05 14.7188 0.158176 15 0.4395L20.5605 6C20.8418 6.28124 20.9999 6.66271 21 7.0605V21C21 21.7956 20.6839 22.5587 20.1213 23.1213C19.5587 23.6839 18.7956 24 18 24H6C5.20435 24 4.44129 23.6839 3.87868 23.1213C3.31607 22.5587 3 21.7956 3 21V3C3 2.20435 3.31607 1.44129 3.87868 0.87868C4.44129 0.316071 5.20435 0 6 0ZM14.25 2.25V5.25C14.25 5.64782 14.408 6.02936 14.6893 6.31066C14.9706 6.59196 15.3522 6.75 15.75 6.75H18.75L14.25 2.25ZM6.2475 20.502C6.3825 20.772 6.5925 21.0165 6.9045 21.1305C7.215 21.243 7.5225 21.1905 7.7745 21.0855C8.2515 20.8905 8.727 20.4315 9.1635 19.9065C9.663 19.305 10.188 18.516 10.695 17.6415C11.6738 17.3514 12.6761 17.1476 13.6905 17.0325C14.1405 17.607 14.6055 18.102 15.0555 18.4575C15.4755 18.7875 15.96 19.062 16.4565 19.083C16.7269 19.0964 16.9947 19.0239 17.2215 18.876C17.454 18.7245 17.6265 18.5055 17.7525 18.252C17.8875 17.9805 17.97 17.697 17.9595 17.4075C17.95 17.1221 17.8443 16.8482 17.6595 16.6305C17.3205 16.2255 16.7655 16.0305 16.2195 15.933C15.5572 15.8304 14.8851 15.8052 14.217 15.858C13.6528 15.0604 13.1608 14.214 12.747 13.329C13.122 12.339 13.4025 11.403 13.527 10.638C13.581 10.311 13.6095 9.999 13.599 9.717C13.5971 9.43708 13.532 9.1612 13.4085 8.91C13.3373 8.77137 13.2362 8.65031 13.1125 8.55561C12.9887 8.46091 12.8454 8.39495 12.693 8.3625C12.39 8.298 12.078 8.3625 11.7915 8.478C11.226 8.703 10.9275 9.183 10.815 9.7125C10.7055 10.2225 10.755 10.8165 10.884 11.4165C11.016 12.0255 11.241 12.6885 11.529 13.359C11.0683 14.5047 10.5363 15.6204 9.936 16.6995C9.16296 16.9427 8.41782 17.267 7.713 17.667C7.158 17.997 6.6645 18.387 6.3675 18.8475C6.0525 19.3365 5.955 19.9185 6.2475 20.502Z" fill="#003372"/>
</svg>
