<svg width="27" height="28" viewBox="0 0 27 28" fill="none" xmlns="http://www.w3.org/2000/svg">
<path d="M26 26.5L23.5 24M12.875 25.25C14.4344 25.25 15.9786 24.9428 17.4194 24.3461C18.8601 23.7493 20.1692 22.8746 21.2719 21.7719C22.3746 20.6692 23.2493 19.3601 23.8461 17.9194C24.4428 16.4786 24.75 14.9344 24.75 13.375C24.75 11.8156 24.4428 10.2714 23.8461 8.83063C23.2493 7.38989 22.3746 6.0808 21.2719 4.97811C20.1692 3.87541 18.8601 3.0007 17.4194 2.40393C15.9786 1.80716 14.4344 1.5 12.875 1.5C9.72555 1.5 6.7051 2.75111 4.47811 4.97811C2.25111 7.2051 1 10.2256 1 13.375C1 16.5244 2.25111 19.5449 4.47811 21.7719C6.7051 23.9989 9.72555 25.25 12.875 25.25Z" stroke="white" stroke-width="1.5" stroke-linecap="round" stroke-linejoin="round"/>
</svg>
