<svg width="56" height="56" viewBox="0 0 56 56" fill="none" xmlns="http://www.w3.org/2000/svg">
<rect width="56" height="56" rx="4" fill="#208AC6"/>
<path d="M34.6124 20.2268C37.2791 22.0802 39.1191 25.0268 39.4924 28.4268M16.6524 28.4935C16.8201 26.8631 17.3352 25.2875 18.1632 23.873C18.9912 22.4585 20.1128 21.2379 21.4524 20.2935M22.9191 39.9202C24.4658 40.7069 26.2258 41.1469 28.0791 41.1469C29.8658 41.1469 31.5458 40.7469 33.0524 40.0135M28.0791 22.2668C29.0622 22.2668 30.005 21.8763 30.7001 21.1812C31.3952 20.4861 31.7858 19.5433 31.7858 18.5602C31.7858 17.5771 31.3952 16.6343 30.7001 15.9392C30.005 15.244 29.0622 14.8535 28.0791 14.8535C27.096 14.8535 26.1532 15.244 25.4581 15.9392C24.7629 16.6343 24.3724 17.5771 24.3724 18.5602C24.3724 19.5433 24.7629 20.4861 25.4581 21.1812C26.1532 21.8763 27.096 22.2668 28.0791 22.2668ZM18.4391 38.5602C19.4222 38.5602 20.365 38.1697 21.0601 37.4745C21.7552 36.7794 22.1458 35.8366 22.1458 34.8535C22.1458 33.8704 21.7552 32.9276 21.0601 32.2325C20.365 31.5374 19.4222 31.1468 18.4391 31.1468C17.456 31.1468 16.5132 31.5374 15.8181 32.2325C15.1229 32.9276 14.7324 33.8704 14.7324 34.8535C14.7324 35.8366 15.1229 36.7794 15.8181 37.4745C16.5132 38.1697 17.456 38.5602 18.4391 38.5602ZM37.5591 38.5602C38.5422 38.5602 39.485 38.1697 40.1801 37.4745C40.8752 36.7794 41.2658 35.8366 41.2658 34.8535C41.2658 33.8704 40.8752 32.9276 40.1801 32.2325C39.485 31.5374 38.5422 31.1468 37.5591 31.1468C36.576 31.1468 35.6332 31.5374 34.9381 32.2325C34.2429 32.9276 33.8524 33.8704 33.8524 34.8535C33.8524 35.8366 34.2429 36.7794 34.9381 37.4745C35.6332 38.1697 36.576 38.5602 37.5591 38.5602Z" stroke="white" stroke-width="1.5" stroke-linecap="round" stroke-linejoin="round"/>
</svg>
