<svg width="28" height="28" viewBox="0 0 28 28" fill="none" xmlns="http://www.w3.org/2000/svg">
<path d="M19.9163 8.66669C19.9163 12.8046 17.1451 15.9167 13.9997 15.9167C10.8542 15.9167 8.08301 12.8046 8.08301 8.66669C8.08301 4.52878 10.8542 1.41669 13.9997 1.41669C17.1451 1.41669 19.9163 4.52878 19.9163 8.66669Z" stroke="white" stroke-width="1.5"/>
<path d="M7.61727 18.6942L7.64343 18.6835L7.66871 18.6709C8.18804 18.4112 8.85421 18.4691 9.40298 18.6763C10.8277 19.52 12.2781 19.95 14 19.95C15.7442 19.95 17.2099 19.5087 18.6525 18.6432C19.0662 18.3949 19.7439 18.3557 20.4068 18.5708C23.1885 19.7146 25.293 21.5966 26.3958 23.8021C27.0422 25.0949 26.0622 26.5834 24.5333 26.5834H3.46663C2.71992 26.5834 2.07951 26.2099 1.71506 25.6876C1.35695 25.1743 1.27697 24.5437 1.59365 23.9556L1.59904 23.9456L1.60412 23.9354C2.71008 21.7235 4.82356 19.8371 7.61727 18.6942Z" stroke="white" stroke-width="1.5"/>
</svg>
