<svg id="Layer_1" data-name="Layer 1" xmlns="http://www.w3.org/2000/svg" viewBox="0 0 366 106.8"><defs><style>.cls-1{fill:#293253;}.cls-2{fill:#fff;}</style></defs><title>TreeCourses Logo VEC</title><path class="cls-1" d="M83,75.81a93.75,93.75,0,0,1-38.26,0A15.81,15.81,0,0,1,32.42,63.53a93.75,93.75,0,0,1,0-38.26A15.81,15.81,0,0,1,44.7,13,93.75,93.75,0,0,1,83,13,15.81,15.81,0,0,1,95.24,25.27a93.58,93.58,0,0,1,0,38.26A15.81,15.81,0,0,1,83,75.81Z"/><path class="cls-2" d="M66.61,53.73c-.54.07-.87.71-1.23,1.39a6.64,6.64,0,0,1-.75,1.19A21.36,21.36,0,0,0,67,58.64a25.8,25.8,0,0,0,3.36-5.71,27.85,27.85,0,0,1-3.7.8Z"/><path class="cls-2" d="M40.41,67.76a27.15,27.15,0,0,0,6.32.78A25.53,25.53,0,0,0,60.64,64.4c1.18-.52,1.39-.87,1.42-1,.07-.37-.53-.9-1.09-1.43a14.22,14.22,0,0,1-1-1,22.52,22.52,0,0,1-17.52,3.91l-.27-.06-.06-.27a23,23,0,0,1,3.95-17.3,24.61,24.61,0,0,1-2.34-2.34,25.85,25.85,0,0,0-4.55,21.68A1.68,1.68,0,0,0,40.41,67.76Z"/><path class="cls-2" d="M53.11,41a26,26,0,0,1,.81-4.11,26,26,0,0,0-5.58,3.3l.27.32C50.52,42.77,50.59,42.85,53.11,41Z"/><path class="cls-2" d="M60.3,38.32a12.58,12.58,0,0,1,3.92-.16c.91.07,1.86.13,2-.14s.13-.9-1.21-3.27C61.81,34.26,61,35.35,60.3,38.32Z"/><path class="cls-2" d="M68.09,30.2c-.14-.2-.3-.43-.45-.67a10.61,10.61,0,0,0-.86-1.18,18.86,18.86,0,0,0-2.28,2.28,23.63,23.63,0,0,1,4.3,15.91,20.33,20.33,0,0,0,3.4-1.38A25.68,25.68,0,0,0,68.09,30.2Z"/><path class="cls-2" d="M86.41,19.17a25.93,25.93,0,0,0-25.65,8.25h0a25.77,25.77,0,0,0-6.18,17.74A20.83,20.83,0,0,0,58,46.55,22.37,22.37,0,0,1,66.7,26.33a22.6,22.6,0,0,1,17.6-4.21l.28.06.06.28a22.29,22.29,0,0,1-3.19,16.41,2.16,2.16,0,0,1-.4.58l-.21.28A11.15,11.15,0,0,1,82,40.87c.48.52,1,1.12,1.34,1.07.11,0,.43-.18.86-1.21a25.36,25.36,0,0,0,4.17-14,26.81,26.81,0,0,0-.79-6.43A1.59,1.59,0,0,0,86.41,19.17Z"/><path class="cls-2" d="M61.14,52.07a23.24,23.24,0,0,0,17.48-5.26c-2.08-2.53-2.13-2.49-3.54-1.52a20.23,20.23,0,0,1-2.33,1.42,20.5,20.5,0,0,1-19.54-.44A22.48,22.48,0,0,1,42.14,22.46l.06-.29.28-.05a22.66,22.66,0,0,1,17.29,4,26.18,26.18,0,0,1,2.35-2.36A25.6,25.6,0,0,0,51.9,19a25.9,25.9,0,0,0-11.51.16,1.58,1.58,0,0,0-1.18,1.16A26,26,0,0,0,44,42.71h0A24.22,24.22,0,0,0,61.14,52.07Z"/><path class="cls-2" d="M72.78,36.59a27.2,27.2,0,0,1,.85,4.07A22.46,22.46,0,0,1,84.8,64.53l0,.28-.29.06a22.4,22.4,0,0,1-23.6-11.16,17.33,17.33,0,0,1-2.81-.52L56.8,52.9a25.83,25.83,0,0,0,7.63,10,26.2,26.2,0,0,0,22.13,4.88,1.61,1.61,0,0,0,1.15-1.16c.09-.35.18-.71.22-1v0C90.66,53.94,83.89,41.1,72.78,36.59Z"/><path class="cls-2" d="M131.51,37.36h-5.42V32.64H123v16h3.06v4.9H112.35v-4.9h3v-16H112.2v4.72h-5.42V27.78h24.73Z"/><path class="cls-2" d="M133,53.54V48.71h1.62V39.9H133V35.11H140l1.11,2.36c1-1.77,1.92-3.28,5.71-3.28v6.63c-3.32,0-5.2.85-5.2,4.1v3.79h1.85v4.83Z"/><path class="cls-2" d="M166.75,51c-2.73,2.36-5.68,3.2-9.51,3.2-4.57,0-9.73-2.91-9.73-10,0-6,4.35-9.62,9.91-9.62,4.39,0,7.74,2.24,8.81,5.34a10.74,10.74,0,0,1,.08,6.23H154.7c.22,1,.7,3,3.79,3a7.49,7.49,0,0,0,5.16-1.77Zm-6.38-8.48c0-1.4-.37-3-2.73-3a2.9,2.9,0,0,0-2.83,3Z"/><path class="cls-2" d="M186.72,51c-2.72,2.36-5.67,3.2-9.5,3.2-4.57,0-9.73-2.91-9.73-10,0-6,4.34-9.62,9.91-9.62,4.39,0,7.74,2.24,8.81,5.34a10.67,10.67,0,0,1,.07,6.23H174.67c.22,1,.7,3,3.8,3a7.51,7.51,0,0,0,5.16-1.77Zm-6.37-8.48c0-1.4-.37-3-2.73-3a2.91,2.91,0,0,0-2.84,3Z"/><path class="cls-2" d="M210.26,43.35l3.26,1.82a10.93,10.93,0,0,1-4.44,6.47,13.23,13.23,0,0,1-7.68,2.3,11.87,11.87,0,0,1-9.12-3.69,12.89,12.89,0,0,1-3.44-9.13q0-6,3.46-9.48a12.06,12.06,0,0,1,9-3.53,12.81,12.81,0,0,1,8.27,2.68V28.51h3.23v8h-3.23a8.2,8.2,0,0,0-3.33-3.79,9.15,9.15,0,0,0-4.74-1.34,7.85,7.85,0,0,0-6.14,2.7A9.86,9.86,0,0,0,193,40.94a9.54,9.54,0,0,0,2.58,6.91,8.16,8.16,0,0,0,6.1,2.68,8.34,8.34,0,0,0,5.27-1.86A9.88,9.88,0,0,0,210.26,43.35Z"/><path class="cls-2" d="M216.68,44.83a8.79,8.79,0,0,1,2.67-6.61,8.94,8.94,0,0,1,6.49-2.59,9.1,9.1,0,0,1,6.47,2.55A8.75,8.75,0,0,1,235,44.83a8.75,8.75,0,0,1-2.69,6.66A9.06,9.06,0,0,1,225.84,54a8.94,8.94,0,0,1-9.16-9.21Zm3.62,0a5.82,5.82,0,0,0,1.61,4.23,5.3,5.3,0,0,0,3.93,1.65A5.23,5.23,0,0,0,229.79,49a6.32,6.32,0,0,0,0-8.43,5.31,5.31,0,0,0-3.93-1.66,5.17,5.17,0,0,0-4,1.7A5.9,5.9,0,0,0,220.3,44.82Z"/><path class="cls-2" d="M256.8,50.5v3h-6.43v-2a9.59,9.59,0,0,1-5.76,2.29,5.06,5.06,0,0,1-2.88-.77,3.6,3.6,0,0,1-1.52-2,14.09,14.09,0,0,1-.38-3.91v-8h-2.47v-3h5.89V46.74a20.73,20.73,0,0,0,.1,2.59,1.84,1.84,0,0,0,.63,1.1,2.05,2.05,0,0,0,1.32.43,8.13,8.13,0,0,0,5.07-2.27V39.16H247.3v-3h6.49V50.5Z"/><path class="cls-2" d="M261.48,50.5V39.16H258v-3h6.24V40a7.11,7.11,0,0,1,1.6-2.54A5.2,5.2,0,0,1,268,36.17a12.31,12.31,0,0,1,3.13-.32h.9V39.3h-.69a10.82,10.82,0,0,0-3.89.53,3.46,3.46,0,0,0-1.91,1.9,13.28,13.28,0,0,0-.62,4.94V50.5h3.79v3H258v-3Z"/><path class="cls-2" d="M274,53.54v-6h3.06v.57a2.86,2.86,0,0,0,1.32,2,4.83,4.83,0,0,0,2.75.79,5.17,5.17,0,0,0,2.64-.58,1.77,1.77,0,0,0,1-1.6,1.57,1.57,0,0,0-.82-1.46,11.06,11.06,0,0,0-3.25-.86,10.32,10.32,0,0,1-5.13-2A4.46,4.46,0,0,1,274.06,41a4.63,4.63,0,0,1,1.67-3.64,6.45,6.45,0,0,1,4.41-1.47,8.54,8.54,0,0,1,4.25,1v-.74h3V41.9h-3V40.83a4.53,4.53,0,0,0-4-2.14,4,4,0,0,0-2.23.59,1.79,1.79,0,0,0-.87,1.55,1.36,1.36,0,0,0,.8,1.36,15.39,15.39,0,0,0,3.45.78,18.55,18.55,0,0,1,3.83.93,4.75,4.75,0,0,1,2.15,1.76,4.94,4.94,0,0,1,.86,2.87,4.61,4.61,0,0,1-1.87,3.87,7.72,7.72,0,0,1-4.83,1.43,7.56,7.56,0,0,1-4.55-1.27v1Z"/><path class="cls-2" d="M309.17,45.69H294.52a6.31,6.31,0,0,0,1.91,3.91,5.67,5.67,0,0,0,4.05,1.49,6.63,6.63,0,0,0,5.66-2.88l3,1.33a9.14,9.14,0,0,1-3.83,3.4A11.48,11.48,0,0,1,300.4,54a10,10,0,0,1-6.83-2.49,8.49,8.49,0,0,1-2.83-6.72,8.67,8.67,0,0,1,2.76-6.61,9,9,0,0,1,6.35-2.59,9.38,9.38,0,0,1,6.36,2.53Q309.06,40.7,309.17,45.69Zm-3.53-2.48a6.26,6.26,0,0,0-1.91-3.32,5.26,5.26,0,0,0-3.79-1.49,5,5,0,0,0-3.51,1.35,5.61,5.61,0,0,0-1.78,3.46Z"/><path class="cls-2" d="M312.05,53.54v-6h3.06v.57a2.83,2.83,0,0,0,1.32,2,4.8,4.8,0,0,0,2.74.79,5.18,5.18,0,0,0,2.65-.58,1.77,1.77,0,0,0,1-1.6,1.57,1.57,0,0,0-.82-1.46,11.16,11.16,0,0,0-3.25-.86,10.41,10.41,0,0,1-5.14-2A4.48,4.48,0,0,1,312.07,41a4.63,4.63,0,0,1,1.67-3.64,6.44,6.44,0,0,1,4.41-1.47,8.54,8.54,0,0,1,4.25,1v-.74h3V41.9h-3V40.83a4.54,4.54,0,0,0-4-2.14,3.9,3.9,0,0,0-2.22.59,1.79,1.79,0,0,0-.87,1.55,1.36,1.36,0,0,0,.8,1.36,15.39,15.39,0,0,0,3.45.78,18.55,18.55,0,0,1,3.83.93,4.8,4.8,0,0,1,2.15,1.76,4.93,4.93,0,0,1,.85,2.87,4.63,4.63,0,0,1-1.86,3.87,7.72,7.72,0,0,1-4.83,1.43,7.56,7.56,0,0,1-4.55-1.27v1Z"/><path class="cls-1" d="M164.08,61.91v7.4h8.67v2.38H161.19V61.91Z"/><path class="cls-1" d="M186.27,61.91v2.38h-9.16v1.3h7.94v2.34h-7.94v1.38h9.16v2.38H174.22V61.91Z"/><path class="cls-1" d="M196.2,61.91l6.21,9.78h-3.12L198,69.6H191.7l-1.33,2.09h-3.12l6.22-9.78Zm-3.06,5.42h3.39l-1.69-2.66Z"/><path class="cls-1" d="M212.89,61.91a3.49,3.49,0,0,1,2.46.93,2.94,2.94,0,0,1,.21,4.25,3.56,3.56,0,0,1-2,1.07l3.13,3.53h-3.39l-2.87-3.45h-4.13v3.45h-2.88V61.91Zm-6.62,4h6.36a.86.86,0,0,0,.64-.22.74.74,0,0,0,.24-.58.75.75,0,0,0-.24-.58.9.9,0,0,0-.64-.21h-6.36Z"/><path class="cls-1" d="M220.93,61.91l8,6.52V61.91h2.89v9.78h-2.81l-8-6.52v6.52h-2.89V61.91Z"/><path class="cls-1" d="M252.88,60.5v2.38h-6.31a1.2,1.2,0,0,0-.85.32,1.05,1.05,0,0,0,0,1.55,1.24,1.24,0,0,0,.85.31H259v2.09h-3.06v4.55H245a3.63,3.63,0,0,1-2.45-.92,2.88,2.88,0,0,1-1-2.21A2.83,2.83,0,0,1,242,67a3.3,3.3,0,0,1,1.31-1.14,3,3,0,0,1-.8-1,3.26,3.26,0,0,1-.29-1.24,2.89,2.89,0,0,1,1-2.17,3.3,3.3,0,0,1,2.38-.89Zm-7.92,7a1,1,0,0,0-.35.77A1.12,1.12,0,0,0,245,69a1.32,1.32,0,0,0,.85.32h7.07V67.14h-7.07A1.27,1.27,0,0,0,245,67.47Z"/><path class="cls-1" d="M280.68,61.91v2.38h-9.15v1.3h7.93v2.34h-7.93v1.38h9.15v2.38H268.63V61.91Z"/><path class="cls-1" d="M290.61,61.91l6.21,9.78H293.7l-1.32-2.09h-6.27l-1.33,2.09h-3.12l6.22-9.78Zm-3.06,5.42h3.39l-1.69-2.66Z"/><path class="cls-1" d="M307.3,61.91a3.49,3.49,0,0,1,2.46.93,2.94,2.94,0,0,1,.21,4.25,3.53,3.53,0,0,1-2,1.07l3.13,3.53h-3.39l-2.87-3.45h-4.12v3.45H297.8V61.91Zm-6.61,4H307a.84.84,0,0,0,.64-.22.74.74,0,0,0,.24-.58.75.75,0,0,0-.24-.58.88.88,0,0,0-.64-.21h-6.35Z"/><path class="cls-1" d="M315.34,61.91l8,6.52V61.91h2.89v9.78h-2.81l-8-6.52v6.52h-2.88V61.91Z"/></svg>