<svg id="Layer_1" data-name="Layer 1" xmlns="http://www.w3.org/2000/svg" viewBox="0 0 266.4 256.8"><defs><style>.cls-1{fill:none;stroke:#77db7f;stroke-miterlimit:10;stroke-width:4.3px;}.cls-2{fill:#fff;}</style></defs><title>TreeCourses Logo VEC</title><path class="cls-1" d="M184.29,185.36a237.59,237.59,0,0,1-97.14,0A40.13,40.13,0,0,1,56,154.17,237.94,237.94,0,0,1,56,57a40.16,40.16,0,0,1,31.2-31.2,237.94,237.94,0,0,1,97.14,0A40.16,40.16,0,0,1,215.49,57a237.94,237.94,0,0,1,0,97.14A40.13,40.13,0,0,1,184.29,185.36Z"/><path class="cls-2" d="M142.77,129.3c-1.35.16-2.21,1.79-3.13,3.51a16.05,16.05,0,0,1-1.88,3,53,53,0,0,0,5.89,5.91,64.21,64.21,0,0,0,8.54-14.5,71.15,71.15,0,0,1-9.39,2.05Z"/><path class="cls-2" d="M76.26,164.91a68,68,0,0,0,16,2,64.88,64.88,0,0,0,35.31-10.49c3-1.33,3.54-2.22,3.61-2.64.17-.92-1.34-2.28-2.77-3.63-.83-.78-1.75-1.65-2.59-2.61a57.11,57.11,0,0,1-44.47,9.94l-.71-.15-.14-.71c-2.91-14.42,1-31.54,10-43.91a67.84,67.84,0,0,1-5.93-5.94c-11.78,15.08-16.31,36.54-11.55,55A4.23,4.23,0,0,0,76.26,164.91Z"/><path class="cls-2" d="M108.5,97a67.69,67.69,0,0,1,2-10.43,65.23,65.23,0,0,0-14.15,8.4l.68.8C101.91,101.45,102.09,101.67,108.5,97Z"/><path class="cls-2" d="M126.74,90.15a32.26,32.26,0,0,1,10-.39c2.31.16,4.7.33,5.15-.37.32-.51.33-2.28-3.07-8.31C130.59,79.85,128.6,82.63,126.74,90.15Z"/><path class="cls-2" d="M146.54,69.54c-.36-.5-.76-1.1-1.16-1.7a27.09,27.09,0,0,0-2.17-3,49.58,49.58,0,0,0-5.8,5.8C146.05,83.35,150,97.93,148.34,111a53.59,53.59,0,0,0,8.63-3.51A65.13,65.13,0,0,0,146.54,69.54Z"/><path class="cls-2" d="M193.06,41.54c-23.69-5.82-49.86,2.6-65.13,20.94h0a65.27,65.27,0,0,0-15.68,45,51.76,51.76,0,0,0,8.65,3.53A56.87,56.87,0,0,1,143,59.7,57.53,57.53,0,0,1,187.69,49l.73.14.14.73a56.55,56.55,0,0,1-8.09,41.66,6.4,6.4,0,0,1-1,1.49c-.16.19-.38.46-.54.69a28.27,28.27,0,0,1,2.9,2.89c1.22,1.34,2.59,2.86,3.4,2.72.29,0,1.09-.45,2.19-3.07A64.44,64.44,0,0,0,198,60.8a68.93,68.93,0,0,0-2-16.32A4,4,0,0,0,193.06,41.54Z"/><path class="cls-2" d="M128.89,125.07c16.57,1.63,32.68-3.24,44.39-13.36-5.28-6.41-5.42-6.32-9-3.85a48.74,48.74,0,0,1-5.92,3.59c-14.91,8.07-34.86,7.63-49.61-1.11-21.15-11.52-33-36.94-28.1-60.47l.15-.71.71-.14A57.54,57.54,0,0,1,125.4,59.09a72,72,0,0,1,6-6,64.63,64.63,0,0,0-25.93-11.89,65.42,65.42,0,0,0-29.24.39,4,4,0,0,0-3,3A65.81,65.81,0,0,0,85.44,101.3l0,0C95.45,114.69,111.28,123.34,128.89,125.07Z"/><path class="cls-2" d="M158.45,85.76a69.07,69.07,0,0,1,2.15,10.35A56.94,56.94,0,0,1,189,156.72l-.14.72-.72.14c-23.51,4.61-48.61-7.29-59.94-28.34a44.29,44.29,0,0,1-7.14-1.33c-1.12-.27-2.2-.53-3.16-.72a65.4,65.4,0,0,0,19.37,25.48c14.9,12.23,36.94,17.09,56.18,12.41a4.07,4.07,0,0,0,2.93-3,22.77,22.77,0,0,0,.56-2.42l0-.1C203.85,129.83,186.67,97.22,158.45,85.76Z"/><path class="cls-2" d="M42.29,224H36.34v-5.18h-3.4v17.57H36.3v5.38H21.24v-5.38h3.31V218.86H21.07V224h-6V213.52H42.29Z"/><path class="cls-2" d="M43.91,241.81v-5.3h1.78v-9.67H44v-5.27h7.61l1.21,2.59c1.06-1.94,2.11-3.6,6.28-3.6v7.29c-3.64,0-5.71.93-5.71,4.49v4.17h2v5.3Z"/><path class="cls-2" d="M81,239c-3,2.59-6.23,3.52-10.44,3.52-5,0-10.69-3.2-10.69-11,0-6.64,4.78-10.56,10.89-10.56,4.82,0,8.5,2.46,9.68,5.87a11.78,11.78,0,0,1,.08,6.84H67.75c.25,1.09.77,3.32,4.17,3.32a8.21,8.21,0,0,0,5.67-1.95Zm-7-9.31c0-1.54-.41-3.24-3-3.24a3.18,3.18,0,0,0-3.11,3.24Z"/><path class="cls-2" d="M102.94,239c-3,2.59-6.24,3.52-10.45,3.52-5,0-10.69-3.2-10.69-11,0-6.64,4.78-10.56,10.89-10.56,4.82,0,8.51,2.46,9.68,5.87a11.7,11.7,0,0,1,.08,6.84H89.7c.24,1.09.77,3.32,4.17,3.32a8.24,8.24,0,0,0,5.67-1.95Zm-7-9.31c0-1.54-.4-3.24-3-3.24a3.19,3.19,0,0,0-3.12,3.24Z"/><path class="cls-2" d="M128.79,230.63l3.58,2a12,12,0,0,1-4.88,7.11,14.5,14.5,0,0,1-8.43,2.52,13.06,13.06,0,0,1-10-4.05,14.15,14.15,0,0,1-3.78-10q0-6.54,3.8-10.41a13.22,13.22,0,0,1,9.9-3.88,14,14,0,0,1,9.08,3v-2.51h3.56v8.83H128a8.89,8.89,0,0,0-3.66-4.16,10,10,0,0,0-5.2-1.47,8.65,8.65,0,0,0-6.75,3,10.87,10.87,0,0,0-2.64,7.5,10.51,10.51,0,0,0,2.83,7.59,9,9,0,0,0,6.7,2.94,9.18,9.18,0,0,0,5.79-2A10.92,10.92,0,0,0,128.79,230.63Z"/><path class="cls-2" d="M135.85,232.25a9.67,9.67,0,0,1,2.92-7.27,9.88,9.88,0,0,1,7.14-2.84,10,10,0,0,1,7.1,2.8,10.52,10.52,0,0,1,0,14.62,10,10,0,0,1-7.11,2.81,9.81,9.81,0,0,1-10.06-10.12Zm4,0a6.36,6.36,0,0,0,1.77,4.64,6.06,6.06,0,0,0,8.66,0,7,7,0,0,0,0-9.26,5.82,5.82,0,0,0-4.31-1.82,5.69,5.69,0,0,0-4.37,1.86A6.5,6.5,0,0,0,139.82,232.24Z"/><path class="cls-2" d="M179.91,238.47v3.34h-7.06v-2.19a10.6,10.6,0,0,1-6.32,2.51,5.56,5.56,0,0,1-3.17-.84,4,4,0,0,1-1.68-2.17,16.27,16.27,0,0,1-.41-4.3V226h-2.71v-3.34H165v11.66a24.25,24.25,0,0,0,.11,2.85,1.86,1.86,0,0,0,.7,1.2,2.16,2.16,0,0,0,1.44.48,8.9,8.9,0,0,0,5.57-2.49V226h-3.38v-3.34h7.14v15.79Z"/><path class="cls-2" d="M185.05,238.47V226H181.2v-3.34h6.86V227a7.48,7.48,0,0,1,1.76-2.79,5.47,5.47,0,0,1,2.38-1.46,13,13,0,0,1,3.43-.36h1v3.8h-.75a12.07,12.07,0,0,0-4.28.57,3.84,3.84,0,0,0-2.1,2.09,14.82,14.82,0,0,0-.68,5.42v4.21H193v3.34H181.2v-3.34Z"/><path class="cls-2" d="M198.85,241.81v-6.56h3.36v.63a3.12,3.12,0,0,0,1.45,2.22,5.23,5.23,0,0,0,3,.87,5.82,5.82,0,0,0,2.91-.63,2,2,0,0,0,1.08-1.76,1.73,1.73,0,0,0-.9-1.61,12.41,12.41,0,0,0-3.57-.94,11.62,11.62,0,0,1-5.64-2.16,4.93,4.93,0,0,1-1.69-3.87,5.11,5.11,0,0,1,1.84-4,7.09,7.09,0,0,1,4.84-1.61,9.23,9.23,0,0,1,4.67,1.12v-.82h3.34V229h-3.34v-1.16a5,5,0,0,0-4.43-2.35,4.28,4.28,0,0,0-2.44.64,2,2,0,0,0-1,1.71,1.49,1.49,0,0,0,.88,1.49,17.52,17.52,0,0,0,3.79.86,20.6,20.6,0,0,1,4.21,1,5.32,5.32,0,0,1,2.36,1.94,5.48,5.48,0,0,1,.94,3.16,5.06,5.06,0,0,1-2,4.24,8.44,8.44,0,0,1-5.31,1.57,8.35,8.35,0,0,1-5-1.39v1.07Z"/><path class="cls-2" d="M237.44,233.2H221.35a7,7,0,0,0,2.09,4.29,6.25,6.25,0,0,0,4.45,1.64,7.3,7.3,0,0,0,6.23-3.17l3.32,1.47a10,10,0,0,1-4.21,3.72,12.62,12.62,0,0,1-5.42,1.22,11,11,0,0,1-7.5-2.74,9.33,9.33,0,0,1-3.11-7.38,9.53,9.53,0,0,1,3-7.26,9.89,9.89,0,0,1,7-2.85,10.3,10.3,0,0,1,7,2.78Q237.33,227.7,237.44,233.2Zm-3.88-2.73a6.83,6.83,0,0,0-2.09-3.65,5.77,5.77,0,0,0-4.17-1.63,5.52,5.52,0,0,0-3.86,1.47,6.27,6.27,0,0,0-1.95,3.81Z"/><path class="cls-2" d="M240.6,241.81v-6.56H244v.63a3.14,3.14,0,0,0,1.46,2.22,5.2,5.2,0,0,0,3,.87,5.82,5.82,0,0,0,2.91-.63,2,2,0,0,0,1.08-1.76,1.73,1.73,0,0,0-.9-1.61A12.22,12.22,0,0,0,248,234a11.62,11.62,0,0,1-5.65-2.16,5,5,0,0,1-1.69-3.87,5.11,5.11,0,0,1,1.84-4,7.11,7.11,0,0,1,4.84-1.61A9.23,9.23,0,0,1,252,223.5v-.82h3.34V229H252v-1.16a5,5,0,0,0-4.43-2.35,4.28,4.28,0,0,0-2.44.64,2,2,0,0,0-1,1.71,1.49,1.49,0,0,0,.88,1.49,17.52,17.52,0,0,0,3.79.86,20.6,20.6,0,0,1,4.21,1,5.32,5.32,0,0,1,2.36,1.94,5.4,5.4,0,0,1,.94,3.16,5.06,5.06,0,0,1-2,4.24,8.44,8.44,0,0,1-5.31,1.57,8.35,8.35,0,0,1-5-1.39v1.07Z"/></svg>